# xmcd
# 
# Track frame offsets:
#     150
#     16656
#     32518
#     52127
#     65508
#     84262
#     102074
#     116435
#     133932
#     151318
#     163887
#     178306
#     195308
#     214742
#     233716
#     250240
#     266741
#     278730
#     294407
#     307988
# 
# Disc length: 4320
# 
# Revision: 0
# Processed by: cddbd v1.5.2PL0 Copyright (c) Steve Scherf et al.
# Submitted via: BonkEnc v1.0.8
# 
DISCID=1410de14
DTITLE=Kenny Rogers - All The Hits and All New Love Songs - All the best
DYEAR=1999
DGENRE=country
TTITLE0=Lucille
TTITLE1=The Gambler
TTITLE2=Coward Of The County
TTITLE3=Ruby Don't Take Your Love To Town
TTITLE4=Islands In The Stream (with Dolly Parton)
TTITLE5=Something's Burning
TTITLE6=Daytime Friends
TTITLE7=Lady
TTITLE8=We've Got Tonight (with Sheena Easton)
TTITLE9=Rueben James
TTITLE10=Love The World Away
TTITLE11=Desperado
TTITLE12=Sweet Music Man
TTITLE13=She Believes In Me
TTITLE14=You Decorated My Life
TTITLE15=Don't Fall In Love With A Dreamer (with Kim Carnes)
TTITLE16=Blaze Of Glory
TTITLE17=I Don't Need You
TTITLE18=Everytime Two Fools Collide (with Dottie West)
TTITLE19=Green Green Grass Of Home
EXTD=YEAR: 1999 ID3G: 13
EXTT0=
EXTT1=
EXTT2=
EXTT3=
EXTT4=
EXTT5=
EXTT6=
EXTT7=
EXTT8=
EXTT9=
EXTT10=
EXTT11=
EXTT12=
EXTT13=
EXTT14=
EXTT15=
EXTT16=
EXTT17=
EXTT18=
EXTT19=
PLAYORDER=
